<!DOCTYPE svg PUBLIC "-//W3C//DTD SVG 20010904//EN" "http://www.w3.org/TR/2001/REC-SVG-20010904/DTD/svg10.dtd">
<svg version="1.0" xmlns="http://www.w3.org/2000/svg" width="500px" height="500px" viewBox="0 0 5000 5000" preserveAspectRatio="xMidYMid meet">
<g id="layerbg1" fill="#202020" stroke="none">
 <path d="M1374 2677 c-3 -8 -4 -45 -2 -83 3 -61 5 -69 23 -69 18 0 20 7 20 80 0 68 -3 80 -18 83 -9 2 -20 -3 -23 -11z"/>
 <path d="M1507 2684 c-4 -4 -7 -32 -7 -62 0 -39 -5 -58 -17 -67 -24 -18 -7 -35 37 -35 42 0 58 13 41 33 -5 7 -11 39 -13 72 -2 44 -7 61 -18 63 -9 1 -19 0 -23 -4z"/>
 <path d="M1741 2668 c-12 -31 3 -46 29 -30 16 10 20 10 20 -2 0 -8 -10 -16 -21 -18 -32 -4 -45 -31 -33 -65 8 -23 16 -29 47 -31 42 -4 59 17 39 48 -7 12 -7 21 -1 27 6 6 9 28 7 49 -3 37 -5 39 -41 42 -31 3 -39 0 -46 -20z"/>
 <path d="M2004 2677 c-3 -8 -4 -45 -2 -83 2 -56 6 -69 21 -72 10 -2 20 5 25 19 l9 23 6 -23 c3 -13 11 -21 19 -19 9 3 13 27 13 84 0 67 -3 79 -18 82 -11 2 -20 -5 -25 -19 l-9 -23 -5 22 c-7 25 -26 29 -34 9z"/>
 <path d="M2174 2677 c-3 -8 -4 -45 -2 -83 l3 -69 39 0 c43 0 62 23 27 32 -26 7 -26 12 -3 29 16 13 16 15 0 28 -24 18 -23 32 3 39 33 9 17 32 -24 35 -25 2 -39 -1 -43 -11z"/>
 <path d="M2346 2682 c-10 -16 -35 -146 -30 -154 10 -15 36 -8 41 12 7 26 19 26 26 -1 4 -13 12 -19 24 -17 20 4 20 32 0 114 -9 38 -17 50 -34 52 -11 2 -24 -1 -27 -6z"/>
 <path d="M2484 2677 c-3 -8 -4 -45 -2 -83 l3 -69 45 0 c33 0 45 4 45 15 0 8 -10 16 -22 18 -28 4 -30 18 -3 25 11 3 20 10 20 17 0 7 -9 14 -20 17 -27 7 -25 31 3 35 12 2 22 10 22 18 0 21 -83 27 -91 7z"/>
 <path d="M2644 2677 c-3 -8 -4 -45 -2 -83 l3 -69 33 -3 c18 -2 40 2 48 9 16 13 19 75 4 84 -7 4 -6 13 1 26 6 11 8 27 5 35 -8 21 -36 17 -45 -8 l-8 -22 -5 22 c-7 25 -26 29 -34 9z"/>
 <path d="M2927 2684 c-4 -4 -7 -33 -7 -64 0 -31 -5 -61 -11 -67 -18 -18 0 -33 41 -33 43 0 61 17 37 35 -11 8 -17 31 -19 71 -2 43 -7 60 -18 62 -9 1 -19 0 -23 -4z"/>
 <path d="M3062 2678 c-17 -17 -16 -132 2 -147 8 -7 30 -11 48 -9 l33 3 0 80 0 80 -35 3 c-19 2 -41 -3 -48 -10z"/>
 <path d="M3224 2677 c-3 -8 -4 -45 -2 -83 l3 -69 33 -3 c18 -2 40 2 48 9 18 14 19 130 2 147 -16 16 -77 15 -84 -1z"/>
 <path d="M3494 2677 c-3 -8 -4 -45 -2 -83 2 -53 6 -69 18 -69 11 0 16 15 18 61 2 53 6 63 24 67 30 8 17 32 -20 35 -21 2 -34 -2 -38 -11z"/>
 <path d="M3626 2682 c-6 -10 22 -144 33 -155 21 -21 46 -1 57 43 24 98 25 110 7 117 -10 4 -21 -1 -30 -13 -13 -18 -15 -18 -24 -1 -10 18 -34 23 -43 9z"/>
 <path d="M3817 2684 c-4 -4 -7 -33 -7 -64 0 -31 -5 -61 -11 -67 -18 -18 0 -33 41 -33 43 0 61 17 37 35 -11 8 -17 31 -19 71 -2 43 -7 60 -18 62 -9 1 -19 0 -23 -4z"/>
 <path d="M3944 2677 c-3 -8 -4 -45 -2 -83 l3 -69 43 0 c46 0 57 14 23 30 -26 12 -27 21 -1 28 11 3 20 10 20 17 0 7 -9 14 -20 17 -27 7 -25 31 3 35 12 2 22 10 22 18 0 21 -83 27 -91 7z"/>
 <path d="M1634 2587 c-9 -25 0 -62 16 -62 10 0 15 10 15 34 0 36 -21 54 -31 28z"/>
 <path d="M1932 2345 l-32 -27 0 -164 c0 -162 0 -165 25 -189 22 -23 31 -25 120 -25 94 0 97 1 126 30 27 26 30 35 27 82 l-3 53 -53 3 c-63 4 -79 -7 -77 -48 1 -23 -2 -30 -17 -30 -16 0 -18 10 -18 126 0 113 2 125 17 122 11 -2 17 -13 18 -30 0 -40 16 -49 76 -46 l54 3 0 57 c-1 87 -20 102 -138 106 -89 4 -95 3 -125 -23z"/>
 <path d="M2224 2357 c-2 -7 -3 -102 -2 -212 l3 -200 60 0 60 0 3 162 2 161 66 4 65 3 10 -40 c6 -22 26 -96 44 -165 l32 -125 78 0 78 0 53 204 c29 113 50 209 48 213 -8 13 -109 9 -122 -4 -7 -7 -12 -20 -12 -30 0 -15 -8 -18 -43 -18 -38 0 -44 3 -54 30 l-11 30 -176 0 c-134 0 -178 -3 -182 -13z m435 -164 c-1 -10 -4 -31 -8 -48 -6 -29 -7 -28 -17 18 -10 43 -10 47 7 47 12 0 19 -7 18 -17z"/>
 <path d="M2860 2341 c-27 -26 -31 -37 -28 -73 l3 -43 60 0 c55 0 60 2 63 23 6 37 32 27 32 -13 l0 -35 -55 0 c-46 0 -60 -4 -80 -25 -22 -22 -25 -32 -25 -105 0 -75 2 -83 26 -105 25 -23 35 -25 120 -25 82 0 96 3 119 23 17 14 28 36 32 62 7 53 -10 67 -74 63 -39 -2 -50 -7 -58 -25 -15 -35 -35 -28 -35 12 l0 35 59 0 c54 0 61 3 86 32 25 29 27 38 23 105 -5 105 -19 117 -143 121 -94 4 -95 4 -125 -27z"/>
 <path d="M3180 2344 c-28 -24 -31 -32 -28 -73 l3 -46 60 0 c55 0 60 2 63 23 6 37 32 27 32 -13 l0 -35 -54 0 c-39 0 -60 -6 -80 -21 -25 -19 -26 -25 -26 -109 0 -84 1 -90 26 -109 23 -18 41 -21 121 -21 87 0 96 2 119 25 21 21 25 33 22 73 l-3 47 -60 0 c-55 0 -60 -2 -63 -22 -6 -38 -32 -28 -32 12 l0 35 54 0 c39 0 60 6 80 21 24 19 26 26 26 104 0 81 -1 84 -31 109 -27 23 -39 26 -114 26 -76 0 -86 -2 -115 -26z"/>
 <path d="M3475 2358 c-3 -8 -4 -103 -3 -213 l3 -200 130 0 130 0 3 33 c5 49 -11 62 -79 62 -59 0 -59 0 -59 30 0 28 1 29 58 32 l57 3 0 45 0 45 -57 3 -58 3 0 34 0 34 68 3 67 3 0 45 0 45 -128 3 c-98 2 -129 0 -132 -10z"/>
 <path d="M3780 2341 c-27 -26 -31 -37 -28 -73 l3 -43 60 0 c55 0 60 2 63 23 2 14 10 22 23 22 17 0 20 -6 17 -32 -3 -33 -3 -33 -66 -38 -88 -7 -102 -25 -102 -129 0 -72 2 -79 28 -104 26 -25 34 -27 119 -27 81 0 95 3 118 23 17 14 28 36 32 62 7 53 -10 67 -74 63 -39 -2 -50 -7 -58 -25 -15 -35 -35 -28 -35 12 l0 35 54 0 c30 0 62 3 71 6 28 11 45 60 45 128 0 54 -4 70 -24 93 -23 26 -29 28 -120 31 -95 4 -96 4 -126 -27z"/>
 <path d="M941 1994 l-31 -26 0 -151 0 -152 -88 3 c-84 3 -91 2 -120 -23 l-32 -27 0 -164 c0 -162 0 -165 25 -189 22 -23 31 -25 124 -25 99 0 99 0 126 31 22 27 25 40 23 83 l-3 51 -60 0 -60 0 -3 -37 c-3 -30 -7 -38 -23 -38 -18 0 -19 8 -19 125 0 117 1 125 19 125 16 0 20 -8 23 -37 l3 -38 60 0 60 0 3 43 3 42 94 0 c92 0 94 0 120 31 22 27 25 40 23 83 l-3 51 -60 0 -60 0 -3 -37 c-3 -30 -7 -38 -23 -38 -18 0 -19 8 -19 125 0 117 1 125 19 125 16 0 20 -8 23 -37 l3 -38 60 0 60 0 3 53 c3 47 0 56 -27 82 -28 29 -33 30 -119 30 -83 0 -93 -2 -121 -26z"/>
 <path d="M1869 1771 l-29 -29 0 -158 c0 -158 0 -158 27 -186 26 -27 30 -28 124 -28 97 0 97 0 124 31 22 27 25 40 23 83 l-3 51 -60 0 -60 0 -3 -37 c-3 -30 -7 -38 -23 -38 -18 0 -19 8 -19 125 0 117 1 125 19 125 16 0 20 -8 23 -37 l3 -38 60 0 60 0 3 53 c3 47 0 56 -27 82 -28 29 -33 30 -121 30 -88 0 -93 -1 -121 -29z"/>
 <path d="M2165 1788 c-3 -8 -4 -103 -3 -213 l3 -200 60 0 60 0 3 83 3 82 29 0 29 0 3 -82 3 -83 60 0 60 0 0 210 0 210 -60 0 -60 0 -3 -77 -3 -78 -29 0 -29 0 -3 78 -3 77 -58 3 c-41 2 -59 -1 -62 -10z"/>
 <path d="M2496 1792 c-3 -5 19 -100 48 -213 l53 -204 78 0 78 0 53 204 c29 113 50 209 48 213 -8 13 -109 9 -122 -4 -7 -7 -12 -20 -12 -30 0 -15 -8 -18 -43 -18 -38 0 -44 3 -54 30 -11 28 -14 30 -67 30 -30 0 -57 -4 -60 -8z m193 -169 c-1 -10 -4 -31 -8 -48 -6 -29 -7 -28 -17 18 -10 43 -10 47 7 47 12 0 19 -7 18 -17z"/>
 <path d="M2875 1788 c-3 -8 -4 -103 -3 -213 l3 -200 60 0 60 0 3 83 3 82 29 0 29 0 3 -82 3 -83 60 0 60 0 0 210 0 210 -60 0 -60 0 -3 -77 -3 -78 -29 0 -29 0 -3 78 -3 77 -58 3 c-41 2 -59 -1 -62 -10z"/>
 <path d="M3204 1787 c-5 -15 81 -367 97 -399 8 -15 23 -18 80 -18 66 0 70 1 79 26 21 55 100 386 95 395 -4 5 -31 9 -61 9 -52 0 -56 -2 -65 -30 -10 -27 -15 -30 -54 -30 -40 0 -44 2 -47 28 -3 26 -6 27 -61 30 -42 2 -59 -1 -63 -11z m186 -183 c-10 -41 -20 -56 -20 -28 0 10 -3 29 -6 42 -5 17 -2 22 14 22 18 0 19 -4 12 -36z"/>
 <path d="M3575 1788 c-3 -8 -4 -103 -3 -213 l3 -200 121 -3 c110 -2 123 -1 147 18 26 21 27 25 27 120 0 93 -2 100 -24 117 l-24 18 34 68 c19 37 32 72 29 77 -4 6 -33 10 -66 10 l-60 0 -27 -62 -27 -63 -5 60 -5 60 -58 3 c-41 2 -59 -1 -62 -10z m165 -273 c0 -38 -3 -45 -20 -45 -17 0 -20 7 -20 45 0 38 3 45 20 45 17 0 20 -7 20 -45z"/>
 </g>
<g id="layerbg2" fill="#a42837" stroke="none">
 <path d="M846 2441 c-5 -7 9 -27 36 -51 l43 -39 256 -1 c141 0 271 -3 289 -7 19 -3 50 -23 72 -45 l38 -38 -1 -417 c0 -378 -6 -489 -22 -443 -3 8 -8 192 -12 409 l-6 395 -31 38 c-56 71 -61 72 -366 76 -150 2 -280 1 -289 -2 -13 -5 -8 -14 26 -46 l43 -40 181 -1 c243 -1 293 -8 323 -43 l24 -27 0 -429 c0 -236 -4 -431 -9 -434 -4 -3 -10 179 -13 405 -5 389 -6 412 -25 437 -36 49 -51 52 -305 52 -130 0 -239 -4 -242 -8 -3 -5 9 -23 27 -39 l32 -31 200 -7 c110 -3 203 -9 207 -11 10 -6 9 -869 -1 -904 l-7 -25 -224 -3 c-124 -1 -231 -4 -239 -7 -11 -4 -2 -18 29 -50 l44 -45 198 0 c140 0 205 4 221 13 41 23 66 50 77 83 8 23 18 34 30 34 26 0 89 56 96 86 4 17 13 24 31 24 15 0 38 13 58 33 l33 33 7 138 c4 76 5 278 3 450 -4 291 -6 314 -25 351 -25 47 -74 96 -122 120 -30 15 -78 18 -356 23 -242 4 -324 2 -329 -7z"/>
 </g>
<g id="layerbg3" fill="#2c578f" stroke="none">
 <path d="M713 2402 c-32 -27 -98 -85 -148 -129 l-90 -79 0 -565 0 -564 215 -3 c118 -1 221 0 229 3 11 4 3 17 -29 50 l-44 45 -143 0 -143 0 0 475 0 475 173 0 c96 0 177 3 181 7 3 4 -8 22 -26 40 l-32 33 -115 0 c-110 0 -114 1 -98 18 15 14 40 18 145 20 70 2 131 7 135 12 11 10 -71 80 -94 80 -27 0 -50 11 -43 21 3 5 33 9 68 9 34 0 66 3 70 7 3 4 -13 26 -36 50 -60 61 -97 60 -175 -5z"/>
 </g>
<g id="layerbg4" fill="#ffffff" stroke="none">
 <path d="M0 2500 l0 -2500 2500 0 2500 0 0 2500 0 2500 -2500 0 -2500 0 0 -2500z m1397 73 c-2 -21 -4 -6 -4 32 0 39 2 55 4 38 2 -18 2 -50 0 -70z m135 15 c2 -28 -1 -48 -7 -48 -6 0 -8 26 -6 67 5 69 8 65 13 -19z m548 42 c0 -30 -3 -38 -15 -34 -9 4 -19 -5 -29 -28 l-14 -33 -1 42 c-1 34 2 41 14 37 11 -4 19 3 26 25 14 41 19 39 19 -9z m125 -25 c0 -36 -3 -65 -7 -65 -5 0 -8 29 -8 65 0 36 3 65 8 65 4 0 7 -29 7 -65z m179 49 c11 -28 6 -40 -14 -40 -11 0 -20 6 -20 12 0 19 11 44 20 44 4 0 11 -7 14 -16z m131 -49 c0 -36 -3 -65 -7 -65 -5 0 -8 29 -8 65 0 36 3 65 8 65 4 0 7 -29 7 -65z m196 36 c-7 -13 -8 -22 -1 -26 12 -7 14 -75 2 -75 -5 0 -7 13 -4 30 3 20 -1 32 -11 36 -14 5 -13 9 1 34 19 32 30 33 13 1z m241 -53 c2 -28 -1 -48 -7 -48 -6 0 -8 26 -6 67 5 69 8 65 13 -19z m133 17 c0 -36 -3 -65 -7 -65 -5 0 -8 29 -8 65 0 36 3 65 8 65 4 0 7 -29 7 -65z m215 0 c0 -36 -3 -65 -7 -65 -5 0 -8 29 -8 65 0 36 3 65 8 65 4 0 7 -29 7 -65z m542 -17 c2 -28 -1 -48 -7 -48 -6 0 -8 26 -6 67 5 69 8 65 13 -19z m133 17 c0 -36 -3 -65 -7 -65 -5 0 -8 29 -8 65 0 36 3 65 8 65 4 0 7 -29 7 -65z m-2445 -200 c49 -24 78 -53 103 -100 19 -37 21 -61 25 -351 2 -172 1 -373 -3 -448 -8 -152 -16 -173 -75 -185 -26 -5 -39 -16 -54 -46 -19 -36 -44 -56 -89 -69 -10 -3 -26 -25 -36 -50 -34 -77 -26 -76 -498 -76 l-413 0 0 554 0 554 108 94 c59 51 123 106 142 122 l35 29 360 -5 c319 -4 364 -7 395 -23z m631 -72 c6 -6 14 -35 17 -62 l5 -51 -51 0 c-48 0 -50 1 -48 25 4 33 -29 63 -52 48 -15 -9 -17 -29 -17 -144 0 -132 0 -134 23 -137 32 -5 49 13 47 48 -2 29 -1 30 47 30 l48 0 0 -45 c0 -72 -20 -85 -134 -85 -73 0 -98 4 -110 16 -13 13 -16 44 -16 179 0 202 -3 198 137 193 54 -2 97 -8 104 -15z m419 -13 c5 -22 12 -25 54 -28 51 -3 76 9 76 39 0 16 8 19 49 19 l49 0 -49 -187 c-27 -104 -49 -191 -49 -195 0 -5 -28 -8 -63 -8 l-64 0 -49 188 c-46 175 -65 218 -72 165 -3 -20 -10 -22 -65 -25 l-62 -3 -3 -162 -2 -163 -45 0 -45 0 0 195 0 195 167 -2 167 -3 6 -25z m512 12 c20 -20 23 -147 4 -177 -14 -22 -24 -25 -75 -25 -69 0 -84 -12 -79 -67 3 -35 5 -38 33 -38 23 0 31 5 33 23 3 19 9 22 54 22 l51 0 -6 -42 c-8 -59 -25 -68 -131 -68 -118 0 -126 7 -126 109 0 42 5 83 10 91 6 10 32 17 77 20 l68 5 0 50 c0 47 -2 50 -25 50 -16 0 -28 -8 -35 -22 -8 -19 -18 -23 -52 -23 -42 0 -43 0 -43 35 0 22 8 43 21 56 19 19 30 21 114 17 58 -2 99 -8 107 -16z m306 2 c20 -14 22 -24 22 -99 0 -98 -6 -105 -88 -105 -59 0 -74 -14 -70 -67 3 -35 5 -38 33 -38 23 0 31 5 33 23 3 19 9 22 48 22 l44 0 0 -39 c0 -61 -17 -71 -121 -71 -128 0 -129 1 -129 110 0 103 5 110 88 110 59 0 74 14 70 67 -3 35 -5 38 -33 38 -23 0 -31 -5 -33 -22 -3 -20 -9 -23 -48 -23 l-44 0 0 39 c0 57 24 71 125 71 57 0 87 -5 103 -16z m322 -14 c0 -29 0 -29 -67 -32 l-68 -3 0 -50 0 -50 58 -3 c56 -3 57 -4 57 -32 0 -28 -1 -29 -57 -32 l-58 -3 0 -45 0 -45 68 -3 c67 -3 67 -3 67 -32 l0 -30 -115 0 -115 0 0 195 0 195 115 0 115 0 0 -30z m296 6 c20 -28 19 -145 -2 -174 -13 -18 -25 -22 -73 -22 -69 0 -84 -12 -79 -67 3 -35 5 -38 33 -38 23 0 31 5 33 23 3 19 9 22 54 22 l51 0 -6 -42 c-8 -59 -25 -68 -131 -68 -119 0 -126 6 -126 111 0 98 9 109 90 109 64 0 80 13 80 63 0 49 -56 63 -75 19 -8 -18 -18 -22 -52 -22 -42 0 -43 0 -43 35 0 22 8 43 21 56 19 19 30 21 116 17 80 -2 97 -6 109 -22z m-1916 -566 c14 -14 20 -33 20 -65 l0 -45 -44 0 c-43 0 -45 1 -48 31 -4 39 -30 59 -55 43 -16 -10 -18 -28 -18 -139 0 -111 2 -129 18 -139 25 -16 51 4 55 43 3 30 5 31 48 31 l44 0 0 -43 c0 -23 -7 -53 -16 -65 -14 -20 -23 -22 -111 -22 -137 0 -133 -6 -133 192 0 200 -1 198 130 198 77 0 93 -3 110 -20z m172 -57 l3 -78 45 0 45 0 3 78 3 77 44 0 45 0 0 -195 0 -195 -45 0 -44 0 -3 83 -3 82 -33 3 c-52 5 -62 -10 -62 -94 l0 -74 -45 0 -45 0 0 195 0 195 45 0 44 0 3 -77z m338 47 c5 -22 12 -25 54 -28 51 -3 76 9 76 39 0 16 8 19 49 19 l49 0 -49 -187 c-27 -104 -49 -191 -49 -195 0 -5 -29 -8 -65 -8 -36 0 -65 3 -65 8 0 4 -22 92 -49 195 l-50 188 47 -3 c40 -3 47 -6 52 -28z m372 -47 l3 -78 45 0 45 0 3 78 3 77 44 0 45 0 0 -195 0 -195 -45 0 -45 0 0 74 c0 84 -10 99 -62 94 l-33 -3 -3 -82 -3 -83 -44 0 -45 0 0 195 0 195 45 0 44 0 3 -77z m328 59 c0 -30 21 -42 73 -42 44 0 49 2 58 30 10 27 15 30 56 30 38 0 44 -3 39 -17 -3 -10 -21 -83 -41 -163 -20 -80 -41 -160 -46 -178 l-11 -33 -61 3 -62 3 -42 164 c-64 248 -62 221 -9 221 38 0 46 -3 46 -18z m372 -49 c2 -38 8 -68 13 -67 6 0 25 30 43 67 l33 67 50 0 49 0 -35 -70 -35 -70 25 -16 c24 -16 25 -21 25 -115 0 -87 -2 -99 -19 -109 -11 -5 -69 -10 -130 -10 l-111 0 0 195 0 195 45 0 44 0 3 -67z"/>
 <path d="M766 2347 c-24 -19 -27 -26 -15 -33 8 -5 160 -11 339 -14 356 -6 362 -7 407 -68 22 -29 22 -39 29 -431 8 -427 11 -457 51 -418 17 16 18 48 21 448 l3 429 -49 48 c-30 31 -60 51 -81 55 -18 4 -178 7 -355 7 l-321 0 -29 -23z"/>
 <path d="M675 2243 c-25 -6 -76 -53 -69 -65 3 -4 167 -8 364 -8 203 0 370 -4 384 -10 47 -18 49 -28 54 -472 3 -230 9 -421 13 -424 5 -2 17 4 29 16 19 19 20 31 20 450 l0 430 -34 37 c-28 31 -42 38 -92 44 -65 8 -637 10 -669 2z"/>
 <path d="M545 2119 c-3 -8 -4 -230 -3 -494 l3 -480 380 -3 c318 -2 384 0 400 12 19 14 20 31 23 480 l3 465 -22 12 c-16 8 -136 13 -401 17 -317 4 -378 3 -383 -9z m625 -139 c14 -14 20 -33 20 -65 l0 -45 -44 0 c-43 0 -45 1 -48 31 -4 39 -30 59 -55 43 -16 -10 -18 -28 -18 -139 0 -111 2 -129 17 -139 26 -16 52 4 56 43 3 30 5 31 48 31 l44 0 0 -44 c0 -74 -17 -85 -135 -88 l-100 -3 -3 -42 -3 -43 -44 0 c-42 0 -44 1 -47 31 -4 39 -30 59 -56 43 -15 -10 -17 -28 -17 -139 0 -111 2 -129 18 -139 25 -16 51 4 55 43 3 30 5 31 48 31 l44 0 0 -43 c0 -23 -7 -53 -16 -65 -14 -20 -23 -22 -114 -22 -76 0 -102 4 -114 16 -13 13 -16 44 -16 179 0 202 -3 198 142 194 l93 -3 3 159 c3 198 1 195 133 195 76 0 92 -3 109 -20z"/>
 <path d="M2606 2222 c-8 -13 28 -147 39 -145 13 2 39 119 31 138 -6 16 -61 21 -70 7z"/>
 <path d="M2636 1652 c-8 -13 28 -147 39 -145 13 2 39 119 31 138 -6 16 -61 21 -70 7z"/>
 <path d="M3345 1650 c-7 -12 14 -128 25 -135 4 -3 12 1 17 8 12 15 33 119 26 129 -6 12 -61 10 -68 -2z"/>
 <path d="M3684 1566 c-3 -7 -4 -35 -2 -62 3 -49 3 -49 38 -49 35 0 35 0 38 48 2 27 -2 55 -9 63 -15 18 -58 18 -65 0z"/>
 </g>
<g id="layer101" fill="#202020" stroke="none">
 <path d="M1380 2605 c0 -60 3 -75 15 -75 12 0 15 15 15 75 0 60 -3 75 -15 75 -12 0 -15 -15 -15 -75z"/>
 <path d="M1510 2615 c0 -51 -3 -65 -15 -65 -8 0 -15 -4 -15 -10 0 -5 18 -10 40 -10 22 0 40 5 40 10 0 6 -4 10 -10 10 -6 0 -10 28 -10 65 0 51 -3 65 -15 65 -12 0 -15 -14 -15 -65z"/>
 <path d="M1747 2660 c-6 -22 18 -29 26 -7 3 9 7 9 17 0 17 -16 5 -43 -20 -43 -25 0 -34 -21 -26 -55 5 -21 12 -25 41 -25 28 0 35 4 35 20 0 21 -15 27 -25 10 -10 -17 -25 -11 -25 9 0 13 8 21 23 23 18 2 23 10 25 46 3 42 3 42 -31 42 -26 0 -36 -5 -40 -20z"/>
 <path d="M2010 2605 c0 -58 3 -75 14 -75 8 0 17 14 21 30 4 17 11 30 16 30 5 0 9 -13 9 -30 0 -16 5 -30 10 -30 6 0 10 32 10 75 0 58 -3 75 -14 75 -8 0 -17 -13 -21 -30 -4 -16 -11 -30 -16 -30 -5 0 -9 14 -9 30 0 17 -4 30 -10 30 -6 0 -10 -32 -10 -75z"/>
 <path d="M2180 2605 l0 -75 35 0 c19 0 35 5 35 10 0 6 -9 10 -20 10 -13 0 -20 7 -20 20 0 11 7 20 15 20 8 0 15 5 15 10 0 6 -7 10 -15 10 -9 0 -15 9 -15 25 0 18 5 25 20 25 11 0 20 5 20 10 0 6 -16 10 -35 10 l-35 0 0 -75z"/>
 <path d="M2340 2623 c-6 -32 -14 -66 -16 -75 -4 -12 0 -18 10 -18 11 0 18 13 22 40 4 22 10 40 14 40 4 0 10 -18 14 -40 4 -27 11 -40 22 -40 10 0 14 6 10 18 -2 9 -10 43 -16 75 -9 45 -15 57 -30 57 -15 0 -21 -12 -30 -57z"/>
 <path d="M2490 2605 l0 -75 40 0 c22 0 40 5 40 10 0 6 -11 10 -25 10 -18 0 -25 5 -25 20 0 13 7 20 20 20 11 0 20 5 20 10 0 6 -9 10 -20 10 -15 0 -20 7 -20 25 0 20 5 25 25 25 14 0 25 5 25 10 0 6 -18 10 -40 10 l-40 0 0 -75z"/>
 <path d="M2650 2604 l0 -75 38 3 c34 3 37 6 40 36 2 18 -1 39 -7 45 -6 8 -6 18 -1 27 14 21 12 40 -3 40 -7 0 -19 -15 -27 -32 l-13 -33 -4 33 c-8 61 -23 32 -23 -44z m50 -29 c0 -16 -6 -25 -15 -25 -9 0 -15 9 -15 25 0 16 6 25 15 25 9 0 15 -9 15 -25z"/>
 <path d="M2930 2615 c0 -37 -4 -65 -10 -65 -5 0 -10 -4 -10 -10 0 -5 18 -10 40 -10 22 0 40 5 40 10 0 6 -7 10 -15 10 -12 0 -15 14 -15 65 0 51 -3 65 -15 65 -12 0 -15 -14 -15 -65z"/>
 <path d="M3064 2666 c-3 -7 -4 -40 -2 -72 l3 -59 38 -3 37 -3 0 75 0 76 -35 0 c-21 0 -38 -6 -41 -14z m49 -61 c0 -28 -5 -51 -12 -53 -7 -2 -11 15 -11 53 0 38 4 55 11 53 7 -2 12 -25 12 -53z"/>
 <path d="M3230 2605 l0 -76 38 3 37 3 0 70 0 70 -37 3 -38 3 0 -76z m50 -1 c0 -40 -4 -55 -12 -52 -14 5 -23 70 -14 94 12 32 26 11 26 -42z"/>
 <path d="M3500 2605 c0 -43 4 -75 10 -75 6 0 10 28 10 65 0 58 2 65 20 65 11 0 20 5 20 10 0 6 -13 10 -30 10 l-30 0 0 -75z"/>
 <path d="M3634 2663 c2 -10 10 -44 16 -75 9 -46 15 -58 30 -58 15 0 21 12 30 58 6 31 14 65 16 75 4 11 0 17 -10 17 -9 0 -16 -7 -16 -15 0 -8 -9 -15 -20 -15 -11 0 -20 7 -20 15 0 8 -7 15 -16 15 -10 0 -14 -6 -10 -17z m56 -58 c0 -14 -4 -25 -10 -25 -5 0 -10 11 -10 25 0 14 5 25 10 25 6 0 10 -11 10 -25z"/>
 <path d="M3820 2615 c0 -37 -4 -65 -10 -65 -5 0 -10 -4 -10 -10 0 -5 18 -10 40 -10 22 0 40 5 40 10 0 6 -7 10 -15 10 -12 0 -15 14 -15 65 0 51 -3 65 -15 65 -12 0 -15 -14 -15 -65z"/>
 <path d="M3950 2605 l0 -75 41 0 c24 0 38 4 34 10 -3 6 -15 10 -26 10 -12 0 -19 7 -19 20 0 13 7 20 20 20 11 0 20 5 20 10 0 6 -9 10 -20 10 -15 0 -20 7 -20 25 0 20 5 25 25 25 14 0 25 5 25 10 0 6 -18 10 -40 10 l-40 0 0 -75z"/>
 <path d="M1640 2560 c0 -16 5 -30 10 -30 6 0 10 14 10 30 0 17 -4 30 -10 30 -5 0 -10 -13 -10 -30z"/>
 <path d="M1937 2340 l-27 -21 0 -165 c0 -208 -3 -204 135 -204 88 0 98 2 120 25 20 19 25 34 25 75 l0 51 -57 -3 -57 -3 -1 -35 c-1 -30 -4 -35 -28 -38 l-27 -3 0 131 c0 109 3 132 16 137 21 8 38 -12 39 -45 0 -26 2 -27 59 -30 l59 -3 -5 56 c-7 80 -19 89 -131 93 -82 3 -95 1 -120 -18z"/>
 <path d="M2230 2155 l0 -205 55 0 55 0 0 165 0 165 64 0 c63 0 65 1 68 28 2 16 23 -50 53 -165 l50 -193 70 0 70 0 49 193 c27 105 51 198 54 205 3 10 -9 12 -54 10 -53 -3 -59 -5 -64 -28 -5 -22 -12 -25 -57 -28 -49 -3 -50 -2 -56 28 l-6 30 -176 0 -175 0 0 -205z m439 43 c0 -13 -6 -45 -13 -73 l-12 -50 -13 60 c-7 33 -16 65 -18 72 -4 9 5 13 26 13 26 0 31 -4 30 -22z"/>
 <path d="M2865 2336 c-18 -19 -25 -36 -25 -66 l0 -40 54 0 c49 0 55 2 58 23 2 14 11 23 26 25 20 3 22 -1 22 -42 l0 -46 -60 0 c-86 0 -100 -16 -100 -120 0 -110 11 -120 136 -120 114 0 137 13 138 81 l1 44 -55 0 c-49 0 -55 -2 -58 -22 -3 -17 -10 -23 -28 -23 -23 0 -25 3 -22 43 l3 42 62 3 c54 3 65 7 84 30 18 23 20 37 17 99 -5 100 -13 107 -133 111 -90 4 -95 3 -120 -22z"/>
 <path d="M3186 2339 c-21 -17 -26 -29 -26 -65 l0 -44 55 0 c52 0 55 1 55 25 0 20 5 25 26 25 23 0 25 -3 22 -42 l-3 -43 -61 -5 c-88 -7 -94 -15 -94 -121 0 -113 6 -119 137 -119 113 0 133 13 133 85 l0 45 -55 0 c-52 0 -55 -1 -55 -25 0 -20 -5 -25 -26 -25 -23 0 -25 3 -22 43 l3 42 61 5 c87 7 94 16 94 115 0 78 -2 85 -26 104 -22 17 -41 21 -109 21 -68 0 -87 -4 -109 -21z"/>
 <path d="M3480 2155 l0 -205 126 0 125 0 -3 38 -3 37 -67 3 -68 3 0 39 0 40 60 0 60 0 0 40 0 40 -60 0 -60 0 0 45 0 45 70 0 70 0 0 40 0 40 -125 0 -125 0 0 -205z"/>
 <path d="M3785 2336 c-18 -19 -25 -36 -25 -66 l0 -40 54 0 c49 0 55 2 58 23 2 16 10 22 28 22 27 0 36 -20 26 -61 -6 -22 -11 -24 -66 -24 -86 0 -100 -16 -100 -118 0 -69 3 -81 23 -100 20 -19 35 -22 114 -22 113 0 136 13 137 81 l1 44 -55 0 c-49 0 -55 -2 -58 -22 -3 -17 -10 -23 -28 -23 -23 0 -25 3 -22 43 l3 42 50 3 c102 5 115 20 115 126 0 98 -14 110 -134 114 -91 4 -96 3 -121 -22z"/>
 <path d="M946 1989 l-26 -20 0 -157 0 -157 -93 3 c-82 3 -95 1 -120 -18 l-27 -21 0 -165 c0 -209 -3 -204 139 -204 96 0 100 1 120 26 15 19 21 41 21 75 l0 49 -54 0 -55 0 -3 -37 c-3 -33 -6 -38 -28 -38 l-25 0 0 130 0 130 25 0 c22 0 25 -5 28 -37 l3 -38 55 0 54 0 0 45 0 45 99 0 c96 0 100 1 120 26 15 19 21 41 21 75 l0 49 -54 0 -55 0 -3 -37 c-3 -33 -6 -38 -28 -38 l-25 0 0 130 0 130 25 0 c22 0 25 -5 28 -37 l3 -38 55 0 54 0 0 50 c0 41 -5 56 -25 75 -22 23 -32 25 -113 25 -75 0 -93 -3 -116 -21z"/>
 <path d="M1875 1765 c-24 -24 -25 -28 -25 -183 0 -153 1 -159 23 -180 21 -19 34 -22 119 -22 92 0 97 1 117 26 15 19 21 41 21 75 l0 49 -54 0 -55 0 -3 -37 c-3 -33 -6 -38 -28 -38 l-25 0 0 130 0 130 25 0 c22 0 25 -5 28 -37 l3 -38 55 0 54 0 0 50 c0 41 -5 56 -25 75 -22 23 -32 25 -115 25 -83 0 -93 -2 -115 -25z"/>
 <path d="M2170 1585 l0 -205 55 0 54 0 3 83 3 82 38 3 37 3 0 -85 0 -86 55 0 55 0 0 205 0 205 -55 0 -55 0 0 -80 0 -80 -40 0 -40 0 0 80 0 80 -55 0 -55 0 0 -205z"/>
 <path d="M2502 1778 c3 -7 27 -100 54 -205 l49 -193 70 0 70 0 49 193 c27 105 51 198 54 205 3 10 -9 12 -54 10 -53 -3 -59 -5 -64 -28 -5 -22 -12 -25 -57 -28 -49 -3 -50 -2 -56 28 -6 29 -8 30 -63 30 -41 0 -55 -3 -52 -12z m197 -150 c0 -13 -6 -45 -13 -73 l-12 -50 -13 60 c-7 33 -16 65 -18 72 -4 9 5 13 26 13 26 0 31 -4 30 -22z"/>
 <path d="M2880 1585 l0 -205 55 0 55 0 0 86 0 85 38 -3 37 -3 3 -82 3 -83 54 0 55 0 0 205 0 205 -55 0 -55 0 0 -80 0 -80 -40 0 -40 0 0 80 0 80 -55 0 -55 0 0 -205z"/>
 <path d="M3210 1779 c0 -12 64 -269 86 -346 l15 -53 69 0 c62 0 68 2 74 23 13 46 96 376 96 382 0 3 -24 5 -54 5 -52 0 -55 -1 -61 -30 -7 -30 -8 -31 -58 -28 -48 3 -52 5 -55 31 -3 26 -6 27 -58 27 -31 0 -54 -4 -54 -11z m197 -143 c-3 -7 -9 -34 -12 -60 -4 -25 -11 -48 -15 -51 -6 -4 -30 89 -30 117 0 4 14 8 31 8 22 0 30 -4 26 -14z"/>
 <path d="M3580 1585 l0 -205 118 0 c161 0 162 1 162 130 0 95 -1 100 -25 116 l-24 16 34 69 c19 38 35 71 35 74 0 3 -26 5 -58 5 l-58 0 -34 -72 -35 -73 -3 73 -3 72 -54 0 -55 0 0 -205z m168 -72 l3 -53 -30 0 c-31 0 -31 0 -31 56 0 54 0 55 28 52 25 -3 27 -7 30 -55z"/>
 </g>
<g id="layer102" fill="#a42837" stroke="none">
 <path d="M850 2437 c0 -4 17 -22 38 -42 l37 -34 256 -1 c141 0 271 -3 290 -7 20 -4 50 -24 76 -50 l44 -43 -3 -430 c-2 -334 -6 -432 -16 -442 -10 -10 -14 -10 -21 0 -4 7 -11 193 -15 414 l-7 401 -26 34 c-51 66 -57 67 -373 71 l-285 4 40 -36 39 -36 180 -1 c249 -1 291 -7 327 -47 l29 -32 0 -429 c0 -396 -1 -431 -17 -447 -17 -17 -18 2 -24 404 -7 459 -7 460 -65 482 -14 6 -132 10 -262 10 l-237 0 30 -29 30 -29 199 -7 c109 -3 205 -9 213 -12 22 -8 15 -929 -7 -943 -8 -5 -117 -10 -245 -10 l-229 0 39 -40 39 -40 201 1 c231 1 245 5 283 82 15 31 29 47 41 47 27 0 72 39 87 77 11 25 20 33 40 33 15 0 37 12 54 28 27 27 28 33 35 166 4 76 5 278 3 450 -4 291 -6 314 -25 351 -25 47 -64 86 -112 110 -30 15 -78 18 -358 23 -178 3 -323 2 -323 -1z"/>
 </g>
<g id="layer103" fill="#2c578f" stroke="none">
 <path d="M738 2413 c-18 -15 -84 -72 -145 -126 l-113 -98 0 -560 0 -559 222 0 222 0 -39 40 -39 40 -148 0 -148 0 0 485 0 485 182 0 182 0 -29 30 -29 30 -125 0 -126 0 28 28 c27 26 31 27 158 31 l131 3 -36 33 c-27 25 -50 35 -88 40 l-51 7 24 19 c18 14 41 19 89 19 l65 0 -40 40 c-51 50 -97 54 -147 13z"/>
 </g>
<g id="layer104" fill="#ffffff" stroke="none">
 <path d="M0 2500 l0 -2500 2500 0 2500 0 0 2500 0 2500 -2500 0 -2500 0 0 -2500z m1410 105 c0 -60 -3 -75 -15 -75 -12 0 -15 15 -15 75 0 60 3 75 15 75 12 0 15 -15 15 -75z m130 10 c0 -37 4 -65 10 -65 6 0 10 -4 10 -10 0 -5 -18 -10 -40 -10 -22 0 -40 5 -40 10 0 6 7 10 15 10 12 0 15 14 15 65 0 51 3 65 15 65 12 0 15 -14 15 -65z m278 23 c-2 -36 -7 -44 -25 -46 -15 -2 -23 -10 -23 -23 0 -20 15 -26 25 -9 10 17 25 11 25 -10 0 -16 -7 -20 -35 -20 -29 0 -36 4 -41 25 -8 34 1 55 26 55 25 0 37 27 20 43 -10 9 -14 9 -17 0 -8 -22 -32 -15 -26 7 4 15 14 20 40 20 34 0 34 0 31 -42z m212 12 c0 -16 4 -30 9 -30 5 0 12 14 16 30 4 17 13 30 21 30 11 0 14 -17 14 -75 0 -43 -4 -75 -10 -75 -5 0 -10 14 -10 30 0 17 -4 30 -9 30 -5 0 -12 -13 -16 -30 -4 -16 -13 -30 -21 -30 -11 0 -14 17 -14 75 0 43 4 75 10 75 6 0 10 -13 10 -30z m220 20 c0 -5 -9 -10 -20 -10 -15 0 -20 -7 -20 -25 0 -16 6 -25 15 -25 8 0 15 -4 15 -10 0 -5 -7 -10 -15 -10 -8 0 -15 -9 -15 -20 0 -13 7 -20 20 -20 11 0 20 -4 20 -10 0 -5 -16 -10 -35 -10 l-35 0 0 75 0 75 35 0 c19 0 35 -4 35 -10z m150 -47 c6 -32 14 -66 16 -75 4 -12 0 -18 -10 -18 -11 0 -18 13 -22 40 -4 22 -10 40 -14 40 -4 0 -10 -18 -14 -40 -4 -27 -11 -40 -22 -40 -10 0 -14 6 -10 18 2 9 10 43 16 75 9 45 15 57 30 57 15 0 21 -12 30 -57z m170 47 c0 -5 -11 -10 -25 -10 -20 0 -25 -5 -25 -25 0 -18 5 -25 20 -25 11 0 20 -4 20 -10 0 -5 -9 -10 -20 -10 -13 0 -20 -7 -20 -20 0 -15 7 -20 25 -20 14 0 25 -4 25 -10 0 -5 -18 -10 -40 -10 l-40 0 0 75 0 75 40 0 c22 0 40 -4 40 -10z m103 -22 l4 -33 13 33 c8 17 20 32 27 32 15 0 17 -19 3 -40 -5 -9 -5 -19 1 -27 6 -6 9 -27 7 -45 -3 -30 -6 -33 -40 -36 l-38 -3 0 75 c0 76 15 105 23 44z m287 -33 c0 -51 3 -65 15 -65 8 0 15 -4 15 -10 0 -5 -18 -10 -40 -10 -22 0 -40 5 -40 10 0 6 5 10 10 10 6 0 10 28 10 65 0 51 3 65 15 65 12 0 15 -14 15 -65z m180 -11 l0 -75 -37 3 -38 3 -3 59 c-4 77 0 86 43 86 l35 0 0 -76z m165 1 l0 -70 -37 -3 -38 -3 0 76 0 76 38 -3 37 -3 0 -70z m255 65 c0 -5 -9 -10 -20 -10 -18 0 -20 -7 -20 -65 0 -37 -4 -65 -10 -65 -6 0 -10 32 -10 75 l0 75 30 0 c17 0 30 -4 30 -10z m100 -5 c0 -8 9 -15 20 -15 11 0 20 7 20 15 0 8 7 15 16 15 10 0 14 -6 10 -17 -2 -10 -10 -44 -16 -75 -9 -46 -15 -58 -30 -58 -15 0 -21 12 -30 58 -6 31 -14 65 -16 75 -4 11 0 17 10 17 9 0 16 -7 16 -15z m190 -50 c0 -51 3 -65 15 -65 8 0 15 -4 15 -10 0 -5 -18 -10 -40 -10 -22 0 -40 5 -40 10 0 6 5 10 10 10 6 0 10 28 10 65 0 51 3 65 15 65 12 0 15 -14 15 -65z m180 55 c0 -5 -11 -10 -25 -10 -20 0 -25 -5 -25 -25 0 -18 5 -25 20 -25 11 0 20 -4 20 -10 0 -5 -9 -10 -20 -10 -13 0 -20 -7 -20 -20 0 -13 7 -20 19 -20 11 0 23 -4 26 -10 4 -6 -10 -10 -34 -10 l-41 0 0 75 0 75 40 0 c22 0 40 -4 40 -10z m-2370 -110 c0 -16 -4 -30 -10 -30 -5 0 -10 14 -10 30 0 17 5 30 10 30 6 0 10 -13 10 -30z m-130 -145 c49 -24 88 -63 113 -110 19 -37 21 -60 25 -351 2 -172 1 -374 -3 -450 -7 -133 -8 -139 -35 -166 -17 -16 -39 -28 -54 -28 -20 0 -29 -8 -40 -33 -15 -38 -60 -77 -87 -77 -12 0 -26 -16 -41 -47 -41 -84 -25 -81 -505 -82 l-423 -1 0 559 0 560 113 98 c61 54 128 111 147 127 l35 29 360 -5 c318 -4 364 -7 395 -23z m636 -77 c11 -10 19 -39 22 -73 l5 -56 -59 3 c-57 3 -59 4 -59 30 -1 33 -18 53 -39 45 -13 -5 -16 -28 -16 -137 l0 -131 27 3 c24 3 27 8 28 38 l1 35 57 3 57 3 0 -51 c0 -41 -5 -56 -25 -75 -22 -23 -32 -25 -120 -25 -138 0 -135 -4 -135 204 l0 165 27 21 c25 19 38 21 120 18 70 -2 96 -7 109 -20z m421 -8 c6 -30 7 -31 56 -28 45 3 52 6 57 28 5 23 11 25 64 28 45 2 57 0 54 -10 -3 -7 -27 -100 -54 -205 l-49 -193 -70 0 -70 0 -50 193 c-30 115 -51 181 -53 165 -3 -27 -5 -28 -68 -28 l-64 0 0 -165 0 -165 -55 0 -55 0 0 205 0 205 175 0 176 0 6 -30z m510 7 c13 -12 19 -37 21 -90 3 -62 1 -76 -17 -99 -19 -23 -30 -27 -84 -30 l-62 -3 -3 -42 c-3 -40 -1 -43 22 -43 18 0 25 6 28 23 3 20 9 22 58 22 l55 0 -1 -44 c-1 -68 -24 -81 -138 -81 -125 0 -136 10 -136 120 0 104 14 120 100 120 l60 0 0 46 c0 41 -2 45 -22 42 -15 -2 -24 -11 -26 -25 -3 -21 -9 -23 -58 -23 l-54 0 0 40 c0 30 7 47 25 66 25 25 30 26 120 22 74 -2 98 -7 112 -21z m307 2 c24 -19 26 -26 26 -104 0 -99 -7 -108 -94 -115 l-61 -5 -3 -42 c-3 -40 -1 -43 22 -43 21 0 26 5 26 25 0 24 3 25 55 25 l55 0 0 -45 c0 -72 -20 -85 -133 -85 -131 0 -137 6 -137 119 0 106 6 114 94 121 l61 5 3 43 c3 39 1 42 -22 42 -21 0 -26 -5 -26 -25 0 -24 -3 -25 -55 -25 l-55 0 0 44 c0 68 29 86 135 86 68 0 87 -4 109 -21z m326 -19 l0 -40 -70 0 -70 0 0 -45 0 -45 60 0 60 0 0 -40 0 -40 -60 0 -60 0 0 -40 0 -39 68 -3 67 -3 3 -37 3 -38 -125 0 -126 0 0 205 0 205 125 0 125 0 0 -40z m291 11 c22 -27 27 -133 7 -176 -13 -28 -28 -33 -103 -37 l-50 -3 -3 -42 c-3 -40 -1 -43 22 -43 18 0 25 6 28 23 3 20 9 22 58 22 l55 0 -1 -44 c-1 -68 -24 -81 -137 -81 -79 0 -94 3 -114 22 -20 19 -23 31 -23 100 0 102 14 118 100 118 55 0 60 2 66 24 10 41 1 61 -26 61 -18 0 -26 -6 -28 -22 -3 -21 -9 -23 -58 -23 l-54 0 0 40 c0 30 7 47 25 66 25 25 30 26 121 22 86 -3 98 -5 115 -27z m-1916 -566 c20 -19 25 -34 25 -75 l0 -50 -54 0 -55 0 -3 38 c-3 32 -6 37 -28 37 l-25 0 0 -130 0 -130 25 0 c22 0 25 5 28 38 l3 37 55 0 54 0 0 -49 c0 -34 -6 -56 -21 -75 -20 -25 -25 -26 -117 -26 -85 0 -98 3 -119 22 -22 21 -23 27 -23 180 0 155 1 159 25 183 22 23 32 25 115 25 83 0 93 -2 115 -25z m175 -55 l0 -80 40 0 40 0 0 80 0 80 55 0 55 0 0 -205 0 -205 -55 0 -55 0 0 86 0 85 -37 -3 -38 -3 -3 -82 -3 -83 -54 0 -55 0 0 205 0 205 55 0 55 0 0 -80z m337 50 c6 -30 7 -31 56 -28 45 3 52 6 57 28 5 23 11 25 64 28 45 2 57 0 54 -10 -3 -7 -27 -100 -54 -205 l-49 -193 -70 0 -70 0 -49 193 c-27 105 -51 198 -54 205 -3 9 11 12 52 12 55 0 57 -1 63 -30z m373 -50 l0 -80 40 0 40 0 0 80 0 80 55 0 55 0 0 -205 0 -205 -55 0 -54 0 -3 83 -3 82 -37 3 -38 3 0 -85 0 -86 -55 0 -55 0 0 205 0 205 55 0 55 0 0 -80z m332 53 c3 -26 7 -28 55 -31 50 -3 51 -2 58 28 6 29 9 30 61 30 30 0 54 -2 54 -5 0 -6 -83 -336 -96 -382 -6 -21 -12 -23 -74 -23 l-69 0 -15 53 c-22 77 -86 334 -86 346 0 7 23 11 54 11 52 0 55 -1 58 -27z m370 -45 l3 -73 35 73 34 72 58 0 c32 0 58 -2 58 -5 0 -3 -16 -36 -35 -74 l-34 -69 24 -16 c24 -16 25 -21 25 -116 0 -129 -1 -130 -162 -130 l-118 0 0 205 0 205 55 0 54 0 3 -72z"/>
 <path d="M2670 2575 c0 -16 6 -25 15 -25 9 0 15 9 15 25 0 16 -6 25 -15 25 -9 0 -15 -9 -15 -25z"/>
 <path d="M3090 2605 c0 -38 4 -55 11 -53 7 2 12 25 12 53 0 28 -5 51 -12 53 -7 2 -11 -15 -11 -53z"/>
 <path d="M3254 2646 c-9 -24 0 -89 14 -94 8 -3 12 12 12 52 0 53 -14 74 -26 42z"/>
 <path d="M3670 2605 c0 -14 5 -25 10 -25 6 0 10 11 10 25 0 14 -4 25 -10 25 -5 0 -10 -11 -10 -25z"/>
 <path d="M770 2340 c-14 -11 -23 -20 -20 -21 3 -1 154 -5 335 -8 365 -7 367 -8 418 -74 l26 -34 7 -401 c4 -221 11 -407 15 -414 7 -10 11 -10 21 0 10 10 14 108 16 442 l3 430 -44 43 c-26 26 -56 46 -76 50 -19 4 -178 7 -355 7 -303 0 -322 -2 -346 -20z"/>
 <path d="M674 2233 c-12 -2 -32 -15 -45 -29 l-22 -24 361 0 c205 0 372 -4 386 -10 58 -22 58 -23 65 -482 6 -402 7 -421 24 -404 16 16 17 51 17 447 l0 429 -29 32 c-23 26 -38 33 -87 39 -61 8 -633 9 -670 2z"/>
 <path d="M550 1636 l0 -486 378 0 c220 0 383 4 392 10 13 8 15 74 18 473 3 439 2 465 -15 472 -10 4 -188 9 -395 12 l-378 6 0 -487z m625 349 c20 -19 25 -34 25 -75 l0 -50 -54 0 -55 0 -3 38 c-3 32 -6 37 -28 37 l-25 0 0 -130 0 -130 25 0 c22 0 25 5 28 38 l3 37 55 0 54 0 0 -49 c0 -34 -6 -56 -21 -75 -20 -25 -24 -26 -120 -26 l-99 0 0 -45 0 -45 -54 0 -55 0 -3 38 c-3 32 -6 37 -28 37 l-25 0 0 -130 0 -130 25 0 c22 0 25 5 28 38 l3 37 55 0 54 0 0 -49 c0 -34 -6 -56 -21 -75 -20 -25 -24 -26 -120 -26 -142 0 -139 -5 -139 204 l0 165 27 21 c25 19 38 21 120 18 l93 -3 0 157 0 157 26 20 c23 18 41 21 116 21 81 0 91 -2 113 -25z"/>
 <path d="M2613 2207 c2 -7 11 -39 18 -72 l13 -60 12 50 c20 84 19 95 -17 95 -21 0 -30 -4 -26 -13z"/>
 <path d="M2643 1637 c2 -7 11 -39 18 -72 l13 -60 12 50 c20 84 19 95 -17 95 -21 0 -30 -4 -26 -13z"/>
 <path d="M3350 1642 c0 -28 24 -121 30 -117 4 3 11 26 15 51 3 26 9 53 12 60 4 10 -4 14 -26 14 -17 0 -31 -4 -31 -8z"/>
 <path d="M3690 1516 c0 -56 0 -56 31 -56 l30 0 -3 53 c-3 48 -5 52 -30 55 -28 3 -28 2 -28 -52z"/>
 </g>

</svg>